<svg width="16" height="16" viewBox="0 0 16 16" fill="none" xmlns="http://www.w3.org/2000/svg">
    <path d="M3.84583 0L12.1542 0C13.4915 0 13.9764 0.139238 14.4653 0.400699C14.9542 0.66216 15.3378 1.04584 15.5993 1.53473C15.8608 2.02362 16 2.50855 16 3.84583V12.1542C16 13.4915 15.8608 13.9764 15.5993 14.4653C15.3378 14.9542 14.9542 15.3378 14.4653 15.5993C13.9764 15.8608 13.4915 16 12.1542 16H3.84583C2.50855 16 2.02362 15.8608 1.53473 15.5993C1.04584 15.3378 0.66216 14.9542 0.400699 14.4653C0.139238 13.9764 0 13.4915 0 12.1542L0 3.84583C0 2.50855 0.139238 2.02362 0.400699 1.53473C0.66216 1.04584 1.04584 0.66216 1.53473 0.400699C2.02362 0.139238 2.50855 0 3.84583 0Z" fill="#6A5ED9"/>
    <path d="M4 4.20284V8.68394C4 8.99668 4.20745 9.27148 4.50823 9.35716L8.60823 10.525C8.98004 10.6309 9.36731 10.4154 9.47322 10.0436C9.49099 9.98121 9.5 9.91667 9.5 9.85182V3.25859C9.5 2.87199 9.1866 2.55859 8.8 2.55859C8.74713 2.55859 8.69442 2.56458 8.6429 2.57645L4.5429 3.52069C4.22514 3.59387 4 3.87676 4 4.20284Z" fill="white"/>
    <path opacity="0.5" d="M11.3 5.87305C11.6866 5.87305 12 6.18645 12 6.57305V12.8998C12 12.9527 11.994 13.0054 11.9821 13.0569C11.8954 13.4336 11.5196 13.6687 11.1429 13.5819L7.27557 12.6913C6.82163 12.5867 6.5 12.1826 6.5 11.7168V11.139L7.9521 11.5536C9.01441 11.8562 10.1209 11.2403 10.4235 10.178C10.4742 9.99978 10.5 9.81538 10.5 9.63008V6.11505L11.0643 5.91392C11.1147 5.89589 11.167 5.88373 11.22 5.87763L11.3 5.87305Z" fill="white"/>
</svg>
